<mxfile host="app.diagrams.net" modified="2023-04-30T22:41:39.286Z" agent="Mozilla/5.0 (X11; Linux x86_64) AppleWebKit/537.36 (KHTML, like Gecko) Chrome/112.0.0.0 Safari/537.36" version="21.2.3" etag="_Y77j75WQV3wN7A1VFhF" type="github">
  <diagram name="Page-1" id="9MRCTACSp8bOsAl_g5AR">
    <mxGraphModel>
      <root>
        <mxCell id="0" />
        <mxCell id="1" parent="0" />
      </root>
    </mxGraphModel>
  </diagram>
</mxfile>
